<svg width="24" height="14" viewBox="0 0 24 14" fill="none" xmlns="http://www.w3.org/2000/svg">
<path d="M8 1C8 0.447715 8.44772 0 9 0H23C23.5523 0 24 0.447715 24 1C24 1.55228 23.5523 2 23 2H9C8.44772 2 8 1.55228 8 1Z" fill="currentcolor"/>
<path d="M0 7C0 6.44772 0.447715 6 1 6H23C23.5523 6 24 6.44772 24 7C24 7.55228 23.5523 8 23 8H1C0.447716 8 0 7.55228 0 7Z" fill="currentcolor"/>
<path d="M16 13C16 12.4477 16.4477 12 17 12H23C23.5523 12 24 12.4477 24 13C24 13.5523 23.5523 14 23 14H17C16.4477 14 16 13.5523 16 13Z" fill="currentcolor"/>
</svg>
